<svg width="120" height="120" viewBox="0 0 120 120" fill="none" xmlns="http://www.w3.org/2000/svg">
  <defs>
    <!-- Gradients for realistic shading -->
    <radialGradient id="appleGrad" cx="0.3" cy="0.3" r="0.8">
      <stop offset="0%" stop-color="#ff6b6b"/>
      <stop offset="60%" stop-color="#e74c3c"/>
      <stop offset="100%" stop-color="#c0392b"/>
    </radialGradient>
    
    <linearGradient id="carrotGrad" x1="0" y1="0" x2="1" y2="1">
      <stop offset="0%" stop-color="#ff9500"/>
      <stop offset="50%" stop-color="#ff7f00"/>
      <stop offset="100%" stop-color="#e67e22"/>
    </linearGradient>
    
    <radialGradient id="broccoliGrad" cx="0.4" cy="0.3" r="0.7">
      <stop offset="0%" stop-color="#2ecc71"/>
      <stop offset="70%" stop-color="#27ae60"/>
      <stop offset="100%" stop-color="#1e8449"/>
    </radialGradient>
    
    <linearGradient id="fishGrad" x1="0" y1="0" x2="1" y2="0">
      <stop offset="0%" stop-color="#74b9ff"/>
      <stop offset="50%" stop-color="#0984e3"/>
      <stop offset="100%" stop-color="#2d3436"/>
    </linearGradient>
    
    <radialGradient id="avocadoGrad" cx="0.3" cy="0.3" r="0.8">
      <stop offset="0%" stop-color="#6c5ce7"/>
      <stop offset="40%" stop-color="#4a3f6b"/>
      <stop offset="100%" stop-color="#2d3436"/>
    </radialGradient>
    
    <radialGradient id="avocadoFlesh" cx="0.4" cy="0.4" r="0.6">
      <stop offset="0%" stop-color="#a4de6c"/>
      <stop offset="70%" stop-color="#81c784"/>
      <stop offset="100%" stop-color="#66bb6a"/>
    </radialGradient>
    
    <radialGradient id="tomatoGrad" cx="0.3" cy="0.2" r="0.9">
      <stop offset="0%" stop-color="#ff7675"/>
      <stop offset="60%" stop-color="#e17055"/>
      <stop offset="100%" stop-color="#d63031"/>
    </radialGradient>
    
    <radialGradient id="leafGrad" cx="0.3" cy="0.3" r="0.8">
      <stop offset="0%" stop-color="#00b894"/>
      <stop offset="60%" stop-color="#00a085"/>
      <stop offset="100%" stop-color="#00695c"/>
    </radialGradient>
  </defs>
  
  <!-- Background circle with subtle shadow -->
  <circle cx="60" cy="62" r="58" fill="#000000" opacity="0.1"/>
  <circle cx="60" cy="60" r="58" fill="#fafbfc" stroke="#e1e8ed" stroke-width="1"/>
  
  <!-- Apple with realistic details -->
  <g transform="translate(18, 12)">
    <ellipse cx="15" cy="18" rx="12" ry="15" fill="url(#appleGrad)"/>
    <!-- Apple indentation -->
    <path d="M10 8c2-2 6-2 8-1 1-1 3-1 4 0-1-3-3-5-6-5s-5 2-6 6z" fill="#c0392b"/>
    <!-- Highlight -->
    <ellipse cx="11" cy="12" rx="3" ry="5" fill="#ff9ff3" opacity="0.4"/>
    <!-- Stem -->
    <rect x="14" y="3" width="2" height="6" fill="#8b4513"/>
    <!-- Leaf -->
    <ellipse cx="18" cy="6" rx="4" ry="2" fill="#27ae60" transform="rotate(25 18 6)"/>
    <path d="M16 6c1 0 2 0 3 1" stroke="#1e8449" stroke-width="0.5" fill="none"/>
  </g>
  
  <!-- Realistic Carrot -->
  <g transform="translate(72, 18)">
    <path d="M12 12L20 32c1 1 0 3-1 3-1 0-2-1-2-2L12 12z" fill="url(#carrotGrad)"/>
    <path d="M10 10L12 12L16 33c0 1-1 1-1 1s-1 0-1-1L10 10z" fill="#e67e22"/>
    <!-- Carrot ridges -->
    <path d="M11 15L19 28" stroke="#d35400" stroke-width="0.5" opacity="0.6"/>
    <path d="M12 18L18 30" stroke="#d35400" stroke-width="0.5" opacity="0.6"/>
    <!-- Carrot top leaves -->
    <path d="M10 8c0-4 2-6 4-6" stroke="#27ae60" stroke-width="1.5" fill="none"/>
    <path d="M12 8c0-3 1-5 3-5" stroke="#2ecc71" stroke-width="1.5" fill="none"/>
    <path d="M14 8c0-4 1-6 3-6" stroke="#27ae60" stroke-width="1.5" fill="none"/>
  </g>
  
  <!-- Realistic Broccoli -->
  <g transform="translate(12, 65)">
    <!-- Main head -->
    <circle cx="12" cy="12" r="6" fill="url(#broccoliGrad)"/>
    <!-- Florets texture -->
    <circle cx="9" cy="9" r="2" fill="#2ecc71"/>
    <circle cx="15" cy="9" r="2" fill="#2ecc71"/>
    <circle cx="12" cy="7" r="2" fill="#52c782"/>
    <circle cx="8" cy="14" r="1.5" fill="#2ecc71"/>
    <circle cx="16" cy="14" r="1.5" fill="#2ecc71"/>
    <circle cx="12" cy="15" r="1.5" fill="#52c782"/>
    <!-- Stem -->
    <rect x="11" y="18" width="2" height="10" rx="1" fill="#7cb342"/>
    <!-- Side branches -->
    <ellipse cx="8" cy="22" rx="1" ry="3" fill="#8bc34a"/>
    <ellipse cx="16" cy="22" rx="1" ry="3" fill="#8bc34a"/>
  </g>
  
  <!-- Realistic Fish -->
  <g transform="translate(68, 62)">
    <ellipse cx="15" cy="15" rx="12" ry="7" fill="url(#fishGrad)"/>
    <!-- Fish body details -->
    <ellipse cx="15" cy="15" rx="9" ry="5" fill="#81c1fc" opacity="0.7"/>
    <path d="M8 15c3-2 6-2 9 0" stroke="#0984e3" stroke-width="0.5"/>
    <path d="M8 17c3-1 6-1 9 0" stroke="#0984e3" stroke-width="0.5"/>
    <!-- Eye -->
    <circle cx="20" cy="12" r="2" fill="#ffffff"/>
    <circle cx="20" cy="12" r="1.2" fill="#2d3436"/>
    <circle cx="20.5" cy="11.5" r="0.5" fill="#ffffff"/>
    <!-- Tail -->
    <path d="M3 15l6-4v8l-6-4z" fill="#74b9ff"/>
    <!-- Fins -->
    <path d="M22 8l4-3v6l-4-3z" fill="#74b9ff"/>
    <path d="M20 20l3 4 2-4" stroke="#0984e3" stroke-width="1" fill="none"/>
  </g>
  
  <!-- Realistic Avocado -->
  <g transform="translate(42, 35)">
    <ellipse cx="10" cy="15" rx="7" ry="12" fill="url(#avocadoGrad)"/>
    <!-- Flesh -->
    <ellipse cx="10" cy="15" rx="5" ry="10" fill="url(#avocadoFlesh)"/>
    <!-- Pit -->
    <ellipse cx="10" cy="15" rx="2.5" ry="4" fill="#8b4513"/>
    <ellipse cx="10" cy="13" rx="1.5" ry="2" fill="#a0522d"/>
    <!-- Highlight on skin -->
    <ellipse cx="7" cy="10" rx="2" ry="4" fill="#9b59b6" opacity="0.3"/>
  </g>
  
  <!-- Realistic Tomato -->
  <g transform="translate(22, 38)">
    <circle cx="10" cy="12" r="8" fill="url(#tomatoGrad)"/>
    <!-- Tomato segments -->
    <path d="M4 8c2 2 4 4 6 4s4-2 6-4" stroke="#e74c3c" stroke-width="0.5" opacity="0.6" fill="none"/>
    <path d="M6 16c1-2 3-3 4-3s3 1 4 3" stroke="#e74c3c" stroke-width="0.5" opacity="0.6" fill="none"/>
    <!-- Highlight -->
    <ellipse cx="7" cy="8" rx="2" ry="3" fill="#ff9ff3" opacity="0.5"/>
    <!-- Top/stem area -->
    <circle cx="10" cy="4" r="3" fill="#27ae60"/>
    <path d="M7 4c0-1 1-2 3-2s3 1 3 2" fill="#2ecc71"/>
    <rect x="9.5" y="2" width="1" height="3" fill="#8b4513"/>
  </g>
  
  <!-- Realistic Leafy Greens -->
  <g transform="translate(52, 12)">
    <path d="M15 8c-4-2-8 0-8 6s2 10 8 8c6 2 8-2 8-8s-4-8-8-6z" fill="url(#leafGrad)"/>
    <!-- Leaf veins -->
    <path d="M10 12c2-1 4-1 6 0" stroke="#00695c" stroke-width="0.5" opacity="0.7"/>
    <path d="M11 15c2 0 3 0 4 0" stroke="#00695c" stroke-width="0.5" opacity="0.7"/>
    <path d="M15 8c0 2 0 4 0 6" stroke="#00695c" stroke-width="0.5" opacity="0.7"/>
    <!-- Additional leaf -->
    <path d="M8 14c-2-1-4 0-4 3s1 5 4 4c3 1 4-1 4-4s-2-4-4-3z" fill="#4db6ac"/>
    <path d="M8 14c0 1 0 2 0 3" stroke="#00695c" stroke-width="0.3" opacity="0.7"/>
  </g>
  
  <!-- Realistic plate/bowl with shadow -->
  <ellipse cx="60" cy="87" rx="28" ry="10" fill="#000000" opacity="0.2"/>
  <ellipse cx="60" cy="85" rx="28" ry="10" fill="#ecf0f1"/>
  <ellipse cx="60" cy="84" rx="26" ry="8" fill="#ffffff"/>
  <ellipse cx="60" cy="84" rx="24" ry="6" fill="#f8f9fa"/>
  
  <!-- Subtle food particles/crumbs -->
  <circle cx="30" cy="30" r="0.5" fill="#27ae60" opacity="0.4"/>
  <circle cx="88" cy="48" r="0.5" fill="#e74c3c" opacity="0.4"/>
  <circle cx="25" cy="58" r="0.5" fill="#f39c12" opacity="0.4"/>
  <circle cx="92" cy="28" r="0.5" fill="#e67e22" opacity="0.4"/>
  
  <!-- Shadow under foods -->
  <ellipse cx="33" cy="35" rx="8" ry="2" fill="#000000" opacity="0.1"/>
  <ellipse cx="87" cy="38" rx="6" ry="1.5" fill="#000000" opacity="0.1"/>
  <ellipse cx="27" cy="85" rx="5" ry="1.5" fill="#000000" opacity="0.1"/>
</svg>
